<svg width="56" height="56" xmlns="http://www.w3.org/2000/svg"><defs><radialGradient cy="15.28%" fx="50%" fy="15.28%" r="51.97%" id="a"><stop stop-color="#FFF" offset="0%"/><stop stop-color="#FFF" stop-opacity="0" offset="100%"/></radialGradient></defs><g transform="translate(4 5)" fill="none"><circle fill="#000" cx="32" cy="16" r="16"/><path d="M40.52 16.85a5.1 5.1 0 0 0-2.68-2.73 16 16 0 0 0 .3-2.4h-2.21a12.7 12.7 0 0 1-.23 1.78 11.46 11.46 0 0 0-5.53.68c-.2-1.24-.34-2.4-.4-3.41 6.62-.39 10.54-2 10.72-2.08l-.85-2.05c-.04.02-3.75 1.53-9.96 1.9-.01-1.54.1-2.47.1-2.52h-2.22c-.04.43-.1 1.33-.1 2.6h-.2c-1.98 0-3.82-.15-4.26-.19v2.24c.65.06 2.22.18 4.01.18h.54c.09 1.26.26 2.72.55 4.31-2.94 1.76-5.27 5.17-4.08 7.95a3.42 3.42 0 0 0 2.71 2.1c.21.03.43.05.65.05 1.26 0 2.71-.52 4.1-1.4.9 1.36 1.63 2.08 1.7 2.14l1.51-1.62c-.01-.01-.65-.64-1.46-1.88.36-.33.71-.68 1.04-1.07a16.34 16.34 0 0 0 2.95-5.13c.5.3 1 .73 1.25 1.38.89 2.21-.39 4.77-1.58 5.88l1.5 1.63c1.98-1.84 3.35-5.3 2.13-8.34M27.06 23a1.2 1.2 0 0 1-1.01-.79c-.55-1.27.64-3.36 2.57-4.75.48 1.77 1.1 3.27 1.73 4.48-1.18.77-2.39 1.2-3.29 1.06m5.53-3.03c-.15.19-.32.36-.48.53a20.93 20.93 0 0 1-1.49-4.12 9.93 9.93 0 0 1 4.48-.73 14.12 14.12 0 0 1-2.5 4.32" fill="#FFF"/><circle fill="#F33" cx="16" cy="32" r="16"/><path d="M14.82 22l-7.4 17.98h3.03l1.82-4.78h7.48l1.82 4.78h3.03L17.2 22h-2.38zM16 25.71l2.75 7.04h-5.51L16 25.71z" fill="#FFF"/><circle fill="url(#a)" opacity=".53" cx="16" cy="32" r="16"/></g></svg>